<?xml version="1.0" encoding="UTF-8" standalone="no"?>
<!-- Created with Inkscape (http://www.inkscape.org/) -->
<svg id="svg2" xmlns:rdf="http://www.w3.org/1999/02/22-rdf-syntax-ns#" xmlns="http://www.w3.org/2000/svg" height="50" width="250" version="1.1" xmlns:cc="http://creativecommons.org/ns#" xmlns:dc="http://purl.org/dc/elements/1.1/">
 <metadata id="metadata7">
  <rdf:RDF>
   <cc:Work rdf:about="">
    <dc:format>image/svg+xml</dc:format>
    <dc:type rdf:resource="http://purl.org/dc/dcmitype/StillImage"/>
    <dc:title/>
   </cc:Work>
  </rdf:RDF>
 </metadata>
 <g id="layer1" transform="translate(0,-1002.3622)">
  <g id="text2985" stroke-linejoin="round" style="letter-spacing:0px;word-spacing:0px;" line-height="125%" font-family="Sans" font-weight="normal" font-size="40px" transform="translate(-130.71429,600)" stroke="#000" stroke-linecap="round" stroke-miterlimit="4" font-style="normal" stroke-dasharray="none" stroke-width="2" fill="none">
   <path id="path3784" style="text-align:start;" d="m161.35,415,0,6.1719c-1.6016-0.71612-3.1641-1.2565-4.6875-1.6211-1.5235-0.36456-2.9623-0.54685-4.3164-0.54688-1.7969,0.00003-3.125,0.24742-3.9844,0.74219-0.85939,0.49481-1.2891,1.263-1.2891,2.3047-0.00001,0.78127,0.28645,1.3932,0.85938,1.8359,0.58592,0.4297,1.6406,0.80079,3.1641,1.1133l3.2031,0.64453c3.2422,0.65106,5.5468,1.6406,6.9141,2.9688,1.3672,1.3281,2.0508,3.2162,2.0508,5.6641-0.00003,3.2162-0.95706,5.612-2.8711,7.1875-1.9011,1.5625-4.8112,2.3438-8.7305,2.3438-1.849,0-3.7044-0.17578-5.5664-0.52734-1.862-0.35157-3.724-0.8724-5.5859-1.5625v-6.3477c1.862,0.98959,3.6588,1.7383,5.3906,2.2461,1.7448,0.4948,3.4245,0.7422,5.0391,0.74219,1.6406,0.00001,2.8971-0.27343,3.7695-0.82031,0.87238-0.54687,1.3086-1.3281,1.3086-2.3438-0.00002-0.91145-0.2995-1.6146-0.89844-2.1094-0.58596-0.49478-1.7643-0.93749-3.5352-1.3281l-2.9102-0.64453c-2.9167-0.62499-5.0521-1.6211-6.4062-2.9883-1.3412-1.3672-2.0117-3.2096-2.0117-5.5274-0.00001-2.9036,0.93749-5.1367,2.8125-6.6992s4.5703-2.3437,8.0859-2.3438c1.6016,0.00003,3.2487,0.12373,4.9414,0.3711,1.6927,0.2344,3.444,0.59247,5.2539,1.0742"/>
   <path id="path3786" style="text-align:start;" d="m187.24,422.05,0,5.7031c-0.95054-0.65102-1.9076-1.1328-2.8711-1.4453-0.95054-0.31248-1.9401-0.46873-2.9688-0.46875-1.9531,0.00002-3.4766,0.57293-4.5703,1.7188-1.0807,1.1328-1.6211,2.7214-1.6211,4.7656-0.00001,2.0443,0.54036,3.6393,1.6211,4.7852,1.0937,1.1328,2.6172,1.6992,4.5703,1.6992,1.0937,0,2.1289-0.16276,3.1055-0.48828,0.98956-0.32552,1.901-0.80729,2.7344-1.4453v5.7226c-1.0938,0.40365-2.207,0.70313-3.3398,0.89844-1.1198,0.20833-2.2461,0.3125-3.3789,0.3125-3.9453,0-7.0312-1.0091-9.2578-3.0273-2.2266-2.0312-3.3398-4.8503-3.3398-8.457,0-3.6068,1.1133-6.4193,3.3398-8.4375,2.2266-2.0312,5.3125-3.0469,9.2578-3.0469,1.1458,0.00002,2.2721,0.10419,3.3789,0.3125,1.1198,0.19533,2.233,0.49481,3.3398,0.89844"/>
   <path id="path3788" style="text-align:start;" d="m209.57,427.32c-0.612-0.28645-1.224-0.49478-1.8359-0.625-0.59898-0.14322-1.2044-0.21483-1.8164-0.21485-1.7969,0.00002-3.1836,0.57944-4.1602,1.7383-0.96355,1.1458-1.4453,2.793-1.4453,4.9414v10.078h-6.9922v-21.875h6.9922v3.5938c0.89843-1.4323,1.9271-2.4739,3.0859-3.125,1.1719-0.66404,2.5716-0.99607,4.1992-0.99609,0.23435,0.00002,0.48826,0.013,0.76172,0.0391,0.27341,0.0131,0.67055,0.0521,1.1914,0.11719l0.0195,6.3281"/>
   <path id="path3790" style="text-align:start;" d="m212.85,434.72,0-13.359,7.0312,0,0,2.1875c-0.00001,1.1849-0.007,2.6758-0.0195,4.4727-0.013,1.7839-0.0195,2.9753-0.0195,3.5742-0.00001,1.7578,0.0456,3.0274,0.13672,3.8086,0.0911,0.76824,0.24738,1.3281,0.46875,1.6797,0.28645,0.45573,0.65754,0.8073,1.1133,1.0547,0.46874,0.2474,1.0026,0.3711,1.6016,0.37109,1.4583,0.00001,2.6042-0.55989,3.4375-1.6797,0.83332-1.1198,1.25-2.6758,1.25-4.668v-10.801h6.9922v21.875h-6.9922v-3.1641c-1.0547,1.276-2.1745,2.22-3.3594,2.832-1.1719,0.59896-2.4675,0.89844-3.8867,0.89844-2.526,0-4.4531-0.77474-5.7812-2.3242-1.3151-1.5495-1.9727-3.8021-1.9727-6.7578"/>
   <path id="path3792" style="text-align:start;" d="m261.87,425c0.88539-1.3542,1.9336-2.3828,3.1445-3.0859,1.2239-0.71612,2.5651-1.0742,4.0234-1.0742,2.513,0.00002,4.427,0.77476,5.7422,2.3242,1.3151,1.5495,1.9726,3.8021,1.9726,6.7578v13.32h-7.0312v-11.406c0.013-0.16926,0.0195-0.34504,0.0195-0.52734,0.013-0.18228,0.0195-0.4427,0.0195-0.78125-0.00004-1.5495-0.2279-2.6693-0.6836-3.3594-0.45576-0.70311-1.1914-1.0547-2.207-1.0547-1.3282,0.00001-2.3568,0.54689-3.0859,1.6406-0.71617,1.0938-1.0873,2.6758-1.1133,4.7461v10.742h-7.0312v-11.406c-0.00002-2.4219-0.20835-3.9778-0.625-4.668-0.41668-0.70311-1.1589-1.0547-2.2266-1.0547-1.3412,0.00001-2.3763,0.5534-3.1055,1.6602-0.72918,1.0938-1.0938,2.6628-1.0938,4.707v10.762h-7.0312v-21.875h7.0312v3.2031c0.85936-1.237,1.8424-2.168,2.9492-2.793,1.1198-0.62498,2.3502-0.93748,3.6914-0.9375,1.5104,0.00002,2.845,0.36461,4.0039,1.0938,1.1588,0.72919,2.0377,1.7513,2.6367,3.0664"/>
   <path id="path3794" style="text-align:start;" d="m280.15,414.08,26.875,0,0,5.6836-9.668,0,0,23.477-7.5195,0,0-23.477-9.6875,0,0-5.6836"/>
   <path id="path3796" style="text-align:start;" d="m315.68,425.84c-1.5495,0.00002-2.7344,0.55991-3.5547,1.6797-0.8073,1.1068-1.211,2.7083-1.2109,4.8047-0.00001,2.0964,0.40364,3.7044,1.2109,4.8242,0.8203,1.1068,2.0052,1.6602,3.5547,1.6602,1.5234,0,2.6888-0.55338,3.4961-1.6602,0.80727-1.1198,1.2109-2.7278,1.2109-4.8242-0.00002-2.0964-0.40367-3.6979-1.2109-4.8047-0.80731-1.1198-1.9727-1.6797-3.4961-1.6797m0-5c3.763,0.00002,6.6992,1.0156,8.8086,3.0469,2.1224,2.0313,3.1836,4.8438,3.1836,8.4375-0.00002,3.5938-1.0612,6.4062-3.1836,8.4375-2.1094,2.0312-5.0456,3.0469-8.8086,3.0469-3.776,0-6.7318-1.0156-8.8672-3.0469-2.1224-2.0312-3.1836-4.8438-3.1836-8.4375s1.0612-6.4062,3.1836-8.4375c2.1354-2.0312,5.0911-3.0469,8.8672-3.0469"/>
   <path id="path3798" style="text-align:start;" d="m343.18,425.84c-1.5495,0.00002-2.7344,0.55991-3.5547,1.6797-0.8073,1.1068-1.211,2.7083-1.2109,4.8047-0.00001,2.0964,0.40364,3.7044,1.2109,4.8242,0.8203,1.1068,2.0052,1.6602,3.5547,1.6602,1.5234,0,2.6888-0.55338,3.4961-1.6602,0.80727-1.1198,1.2109-2.7278,1.2109-4.8242-0.00002-2.0964-0.40367-3.6979-1.2109-4.8047-0.80731-1.1198-1.9727-1.6797-3.4961-1.6797m0-5c3.763,0.00002,6.6992,1.0156,8.8086,3.0469,2.1224,2.0313,3.1836,4.8438,3.1836,8.4375-0.00002,3.5938-1.0612,6.4062-3.1836,8.4375-2.1094,2.0312-5.0456,3.0469-8.8086,3.0469-3.776,0-6.7318-1.0156-8.8672-3.0469-2.1224-2.0312-3.1836-4.8438-3.1836-8.4375s1.0612-6.4062,3.1836-8.4375c2.1354-2.0312,5.0911-3.0469,8.8672-3.0469"/>
   <path id="path3800" style="text-align:start;" d="m360.27,412.85,6.9922,0,0,30.391-6.9922,0,0-30.391"/>
  </g>
 </g>
</svg>
